<svg width="196" height="196" viewBox="0 0 196 196" fill="none" xmlns="http://www.w3.org/2000/svg">
<g clip-path="url(#clip0)">
<path fill-rule="evenodd" clip-rule="evenodd" d="M69.128 41.5465C67.4443 44.4315 65.7481 47.3308 65.3586 47.9894C64.9693 48.6481 64.4752 49.4888 64.2609 49.8577C64.0466 50.2265 63.7559 50.7223 63.615 50.9594C63.474 51.1965 63.1723 51.7139 62.9443 52.1091C62.7164 52.5043 62.4146 53.0216 62.2737 53.2588C62.1328 53.4959 61.831 54.0132 61.6031 54.4084C61.3751 54.8036 61.0703 55.321 60.9255 55.5581C60.7808 55.7952 60.5775 56.1401 60.4735 56.3245C60.0624 57.0544 53.0526 69.0249 52.9838 69.1146C52.9435 69.1673 52.8019 69.4044 52.6693 69.6415C52.5366 69.8786 50.4347 73.4785 47.9984 77.6413C45.562 81.8041 43.4602 85.404 43.3277 85.6411C43.1953 85.8782 43.0533 86.1153 43.0122 86.168C42.9711 86.2207 42.7895 86.5225 42.6086 86.8386C42.4277 87.1548 40.3485 90.7116 37.9879 94.7426C35.6274 98.7736 33.5578 102.309 33.3889 102.599C33.22 102.888 30.4834 107.566 27.3075 112.994C24.1316 118.421 21.4249 123.056 21.2924 123.293C21.16 123.53 21.0179 123.767 20.9768 123.82C20.9357 123.872 20.7476 124.185 20.5586 124.514C20.3696 124.844 20.0641 125.372 19.8797 125.688C19.6953 126.004 19.3999 126.511 19.2234 126.814C19.0468 127.117 17.739 129.348 16.317 131.772C13.8725 135.938 11.8625 139.374 10.9925 140.873C10.7784 141.242 10.4847 141.738 10.3398 141.975C10.1376 142.306 5.71088 149.872 2.14183 155.986C1.96497 156.289 1.67555 156.785 1.49869 157.088C1.32183 157.391 0.992643 157.962 0.767116 158.358C0.541685 158.753 0.276783 159.191 0.178582 159.33C0.080381 159.47 0 159.61 0 159.642C0 159.673 6.07159 159.699 13.4924 159.699H26.9848L27.1202 159.435C27.2388 159.205 28.0172 157.811 28.5783 156.825C28.824 156.393 39.8049 136.797 40.121 136.226C40.2524 135.989 40.3909 135.752 40.4289 135.7C40.4669 135.647 40.6507 135.324 40.8374 134.981C41.0241 134.638 41.542 133.712 41.9884 132.921L42.7999 131.484L66.2492 131.46L89.6985 131.436L89.6306 131.029C89.5445 130.513 89.461 129.973 89.1458 127.891C89.0062 126.969 88.8519 125.956 88.8031 125.64C88.7542 125.324 88.6499 124.634 88.5713 124.107C88.4926 123.58 88.3888 122.89 88.3406 122.574C88.2924 122.258 88.1819 121.525 88.0951 120.945C87.8265 119.152 87.5731 117.467 87.3242 115.82C87.1928 114.95 87.0433 113.959 86.9918 113.616C86.9404 113.274 86.8319 112.562 86.7509 112.036C86.6697 111.509 86.5608 110.781 86.5088 110.42C86.4568 110.058 86.3907 109.724 86.3619 109.677C86.332 109.629 79.6728 109.592 70.7947 109.592C57.6302 109.592 55.2799 109.572 55.2799 109.46C55.2799 109.387 56.048 107.953 56.9869 106.274C58.5826 103.421 58.9903 102.686 59.7187 101.353C59.877 101.063 60.1071 100.665 60.23 100.469C60.3529 100.272 60.4534 100.094 60.4534 100.073C60.4534 100.051 61.2217 98.6599 62.1609 96.9809C63.1 95.3019 64.0555 93.5834 64.2842 93.1618C64.5129 92.7403 65.3756 91.1882 66.2012 89.7128C67.027 88.2374 67.8555 86.75 68.0424 86.4075C68.474 85.6168 68.5533 85.474 70.7046 81.6172C72.5716 78.2703 72.7685 77.9161 73.2889 76.9707C73.4628 76.6545 74.2185 75.2965 74.9679 73.9528C75.7174 72.6091 76.473 71.2511 76.6469 70.9349C76.8209 70.6187 77.0481 70.2092 77.1518 70.0247C77.6287 69.1769 78.3288 67.9172 78.5895 67.438C78.7471 67.1482 79.0355 66.6308 79.2303 66.2883C79.7221 65.4238 79.7183 65.4456 79.5599 64.3994C79.4818 63.8839 79.3728 63.1603 79.3177 62.7914C79.2626 62.4226 79.1811 61.8837 79.1365 61.5938C78.8956 60.0279 78.5357 57.6408 78.4649 57.1389C78.392 56.6229 78.004 54.0508 77.7929 52.6839C77.748 52.3941 77.6008 51.4241 77.4655 50.5283C77.3302 49.6325 77.1084 48.1667 76.9726 47.2709C76.8367 46.3751 76.6858 45.3728 76.6372 45.0434C76.5885 44.7141 76.509 44.1752 76.4603 43.8458C76.4116 43.5166 76.2639 42.5357 76.132 41.6663C76.0002 40.7968 75.8013 39.4603 75.6901 38.6963C75.579 37.9322 75.4434 37.0807 75.3888 36.8041L75.2897 36.3011H73.7394H72.1892L69.128 41.5465ZM81.9139 36.4736C81.9139 36.5684 81.9524 36.6871 81.9995 36.7371C82.0742 36.8165 82.219 37.6437 82.4933 39.5585C82.5348 39.8484 82.6801 40.8184 82.8163 41.7142C82.9523 42.61 83.1744 44.0758 83.3096 44.9716C83.4449 45.8673 83.5927 46.8374 83.638 47.1272C83.6834 47.417 83.7653 47.9559 83.8201 48.3248C84.262 51.2999 84.4235 52.3799 84.5506 53.2109C84.6313 53.7378 84.7423 54.4707 84.7974 54.8395C84.8525 55.2084 84.934 55.7473 84.9786 56.0371C85.2392 57.7308 85.5801 59.9961 85.649 60.4921C85.745 61.1817 86.0937 63.5119 86.2261 64.3483C86.378 65.3079 86.4958 66.0749 86.6562 67.1506C86.7387 67.7039 86.8479 68.426 86.8989 68.7553C87.0694 69.8571 87.1738 70.5444 87.3246 71.5576C87.4069 72.1109 87.516 72.8223 87.567 73.1384C87.618 73.4546 87.7686 74.4677 87.9017 75.3899C88.0348 76.312 88.1863 77.336 88.2383 77.6653C88.3686 78.4902 88.4898 79.2848 88.6659 80.4676C88.7482 81.0208 88.8574 81.7322 88.9085 82.0484C89.0184 82.7283 89.497 85.9027 89.8256 88.132C90.0548 89.6867 90.1757 90.4909 90.3515 91.6289C90.4002 91.9451 90.5046 92.6349 90.5832 93.1618C90.6618 93.6888 90.7661 94.3786 90.8149 94.6947C90.8637 95.0109 90.9747 95.7438 91.0615 96.3234C91.1483 96.903 91.3049 97.9377 91.4095 98.6227C91.5142 99.3078 91.7057 100.58 91.8351 101.449C92.1345 103.459 92.2238 104.051 92.4057 105.233C92.4869 105.76 92.5984 106.493 92.6535 106.862C92.7086 107.231 92.7936 107.791 92.8424 108.108C92.8912 108.424 92.9941 109.113 93.071 109.64C93.1479 110.167 93.2997 111.18 93.4082 111.892C93.6178 113.266 94.0214 115.934 94.1763 116.97C94.2275 117.312 94.3769 118.304 94.5083 119.173C94.896 121.74 95.1128 123.179 95.2806 124.299C95.3674 124.878 95.4783 125.611 95.5272 125.927C95.5759 126.244 95.6803 126.933 95.7588 127.46C95.8375 127.987 95.9413 128.677 95.9896 128.993C96.0378 129.309 96.1879 130.301 96.323 131.197C96.4581 132.092 96.6575 133.407 96.766 134.119C96.8746 134.83 97.0262 135.843 97.1032 136.37C97.2582 137.432 97.36 138.108 97.5792 139.532C97.6604 140.059 97.7719 140.792 97.827 141.16C97.8821 141.529 97.9638 142.068 98.0085 142.358C98.0534 142.648 98.2043 143.661 98.3439 144.609C98.4835 145.558 98.6348 146.571 98.6801 146.861C98.7504 147.31 98.9091 148.354 99.3502 151.268C99.3941 151.558 99.5194 152.42 99.6286 153.184C99.7379 153.948 99.8707 154.81 99.9238 155.1C99.9769 155.39 100.129 156.382 100.262 157.304C100.396 158.226 100.529 159.142 100.559 159.34L100.613 159.699H112.896H125.18L126.676 157.088C131.352 148.928 132.765 146.464 134.653 143.172C135.803 141.17 136.816 139.402 136.905 139.244C136.995 139.086 137.564 138.095 138.171 137.041C139.783 134.239 141.893 130.57 142.082 130.239C142.742 129.087 144.218 126.52 145.002 125.161C145.519 124.265 146.026 123.381 146.129 123.197C146.232 123.012 146.48 122.581 146.678 122.239C146.877 121.896 147.125 121.465 147.23 121.281C147.334 121.096 148.099 119.76 148.931 118.311C149.762 116.862 150.516 115.547 150.605 115.389C150.695 115.231 151.265 114.239 151.871 113.185C152.478 112.131 153.828 109.782 154.87 107.964C155.913 106.146 157.175 103.947 157.676 103.078C158.176 102.208 159.254 100.333 160.07 98.9102C160.887 97.4874 162.396 94.8576 163.425 93.066C164.453 91.2744 165.368 89.6793 165.458 89.5212C165.548 89.3631 166.302 88.0482 167.134 86.5991C167.965 85.1501 168.719 83.8351 168.809 83.6771C169.036 83.2797 172.07 77.9919 173.867 74.8629C175.908 71.3105 177.138 69.1688 177.335 68.8272C177.426 68.6691 178.168 67.3757 178.985 65.953C179.802 64.5303 180.893 62.6333 181.409 61.7376C181.925 60.8418 182.421 59.9795 182.511 59.8214C182.6 59.6634 183.354 58.3484 184.186 56.8994C185.018 55.4503 186.626 52.648 187.758 50.672C188.89 48.696 190.314 46.217 190.921 45.1632C191.528 44.1093 192.098 43.1177 192.187 42.9596C192.277 42.8016 193.032 41.4866 193.865 40.0376C194.699 38.5885 195.49 37.2089 195.623 36.9718C195.756 36.7347 195.9 36.5263 195.942 36.5088C196.378 36.3273 194.605 36.3031 182.503 36.3248L168.987 36.3491L168.725 36.8281C168.265 37.667 166.575 40.777 165.315 43.1034C164.645 44.3416 163.87 45.7644 163.594 46.2649C163.317 46.7655 162.939 47.4553 162.753 47.7978C162.568 48.1403 162.286 48.6577 162.129 48.9475C161.663 49.8028 160.57 51.8206 160.209 52.4923C160.025 52.8348 159.799 53.2444 159.708 53.4025C159.617 53.5605 159.392 53.9701 159.207 54.3126C158.698 55.2592 157.607 57.2709 157.311 57.8095C156.697 58.9238 154.818 62.379 154.392 63.1746C154.139 63.6489 153.901 64.08 153.864 64.1327C153.827 64.1854 153.59 64.6165 153.338 65.0908C152.786 66.1282 152.584 66.4999 151.593 68.3002C151.173 69.0643 150.644 70.0343 150.418 70.4559C150.192 70.8774 149.932 71.3517 149.841 71.5097C149.668 71.8082 149.329 72.4354 148.546 73.9049C148.294 74.3791 148.057 74.8102 148.02 74.8629C147.983 74.9156 147.746 75.3468 147.494 75.821C146.958 76.8291 146.795 77.1284 145.672 79.1742C144.716 80.9146 144.478 81.3533 143.902 82.4316C143.676 82.8531 143.417 83.3274 143.326 83.4854C143.153 83.7839 142.814 84.4111 142.032 85.8806C141.779 86.3548 141.542 86.786 141.505 86.8386C141.468 86.8913 141.231 87.3225 140.977 87.7967C140.556 88.5867 139.203 91.0658 138.755 91.8684C138.652 92.0529 138.339 92.6349 138.059 93.1618C137.779 93.6888 137.519 94.163 137.482 94.2157C137.444 94.2684 137.207 94.6995 136.955 95.1737C136.172 96.6432 135.833 97.2704 135.66 97.5689C135.569 97.727 135.309 98.2012 135.082 98.6227C134.856 99.0443 134.434 99.8203 134.146 100.347C133.857 100.874 133.213 102.06 132.715 102.982C132.216 103.904 131.732 104.788 131.639 104.946C131.546 105.104 131.286 105.578 131.06 106C130.12 107.757 129.975 108.025 129.817 108.299C129.644 108.599 129.299 109.237 128.523 110.694C128.27 111.168 128.033 111.6 127.996 111.652C127.959 111.705 127.722 112.136 127.469 112.61C127.216 113.085 126.514 114.378 125.909 115.485C125.304 116.591 124.692 117.712 124.548 117.975C124.404 118.239 124.08 118.843 123.828 119.317C123.576 119.791 123.339 120.222 123.302 120.275C123.265 120.328 123.028 120.759 122.775 121.233C121.993 122.702 121.654 123.33 121.481 123.628C121.39 123.786 121.13 124.26 120.904 124.682C120.678 125.103 120.176 126.021 119.79 126.721C119.403 127.421 119.086 128.035 119.086 128.086C119.086 128.137 119.047 128.179 118.999 128.179C118.908 128.179 118.809 127.63 118.56 125.736C118.337 124.041 118.228 123.228 118.122 122.478C118.02 121.748 117.69 119.239 117.557 118.167C117.511 117.798 117.36 116.656 117.222 115.628C117.085 114.601 116.934 113.458 116.887 113.089C116.84 112.721 116.69 111.578 116.553 110.551C116.416 109.523 116.263 108.381 116.214 108.012C116.045 106.747 115.819 105.041 115.728 104.347C115.625 103.56 115.521 102.772 115.301 101.114C115.217 100.481 115.106 99.6407 115.055 99.2455C114.879 97.9027 114.511 95.1347 114.386 94.2157C114.336 93.8468 114.254 93.2217 114.203 92.8265C114.152 92.4313 113.998 91.2673 113.861 90.2397C113.723 89.2122 113.572 88.0697 113.526 87.7009C113.479 87.332 113.328 86.1896 113.19 85.162C113.052 84.1345 112.902 82.992 112.856 82.6232C112.809 82.2543 112.703 81.4568 112.62 80.8508C112.536 80.2448 112.43 79.4472 112.384 79.0784C112.337 78.7095 112.187 77.567 112.049 76.5395C111.911 75.512 111.76 74.3695 111.714 74.0007C111.667 73.6318 111.516 72.4893 111.379 71.4618C111.242 70.4343 111.09 69.2918 111.04 68.923C110.872 67.6581 110.646 65.9526 110.555 65.2584C110.452 64.4717 110.348 63.6838 110.128 62.025C110.044 61.3927 109.934 60.5627 109.884 60.1807C109.692 58.7114 109.338 56.049 109.213 55.127C109.163 54.7581 109.08 54.133 109.03 53.7378C108.979 53.3426 108.825 52.1785 108.687 51.151C108.55 50.1235 108.399 48.981 108.353 48.6122C108.202 47.3996 107.884 44.9843 107.785 44.3009C107.732 43.9321 107.624 43.1345 107.546 42.5285C107.357 41.0692 107.03 38.6111 106.921 37.834C106.873 37.4915 106.807 37.0066 106.774 36.7562L106.716 36.3011H94.3149C82.4371 36.3011 81.9139 36.3084 81.9139 36.4736Z" fill="black"/>
</g>
<defs>
<clipPath id="clip0">
<rect width="196" height="196" fill="white"/>
</clipPath>
</defs>
</svg>
