<svg xmlns="http://www.w3.org/2000/svg" width="18" height="18" viewBox="0 0 18 18" fill="none">
  <path d="M8.475 14.475C8.3375 14.3375 8.2655 14.1625 8.259 13.95C8.253 13.7375 8.31875 13.5625 8.45625 13.425L12.1312 9.74998H3.75C3.5375 9.74998 3.35925 9.67798 3.21525 9.53398C3.07175 9.39048 3 9.21248 3 8.99998C3 8.78748 3.07175 8.60923 3.21525 8.46523C3.35925 8.32173 3.5375 8.24998 3.75 8.24998H12.1312L8.45625 4.57498C8.31875 4.43748 8.253 4.26248 8.259 4.04998C8.2655 3.83748 8.3375 3.66248 8.475 3.52498C8.6125 3.38748 8.7875 3.31873 9 3.31873C9.2125 3.31873 9.3875 3.38748 9.525 3.52498L14.475 8.47498C14.55 8.53748 14.6033 8.61548 14.6348 8.70898C14.6658 8.80298 14.6813 8.89998 14.6813 8.99998C14.6813 9.09998 14.6658 9.19373 14.6348 9.28123C14.6033 9.36873 14.55 9.44998 14.475 9.52498L9.525 14.475C9.3875 14.6125 9.2125 14.6812 9 14.6812C8.7875 14.6812 8.6125 14.6125 8.475 14.475Z" fill="#FAFAFA"/>
</svg>