<svg width="24" height="24" viewBox="0 0 24 24" fill="none" xmlns="http://www.w3.org/2000/svg">
<path d="M12 8.87576C10.2797 8.87576 8.87577 10.2797 8.87577 12C8.87577 13.7203 10.2797 15.1242 12 15.1242C13.7203 15.1242 15.1242 13.7203 15.1242 12C15.1242 10.2797 13.7203 8.87576 12 8.87576ZM21.3703 12C21.3703 10.7062 21.382 9.4242 21.3094 8.1328C21.2367 6.6328 20.8945 5.30155 19.7977 4.20467C18.6984 3.10545 17.3695 2.76561 15.8695 2.69295C14.5758 2.6203 13.2937 2.63201 12.0023 2.63201C10.7086 2.63201 9.42656 2.6203 8.13515 2.69295C6.63515 2.76561 5.3039 3.1078 4.20702 4.20467C3.1078 5.30389 2.76796 6.6328 2.6953 8.1328C2.62265 9.42655 2.63436 10.7086 2.63436 12C2.63436 13.2914 2.62265 14.5758 2.6953 15.8672C2.76796 17.3672 3.11015 18.6984 4.20702 19.7953C5.30624 20.8945 6.63515 21.2344 8.13515 21.307C9.4289 21.3797 10.7109 21.368 12.0023 21.368C13.2961 21.368 14.5781 21.3797 15.8695 21.307C17.3695 21.2344 18.7008 20.8922 19.7977 19.7953C20.8969 18.6961 21.2367 17.3672 21.3094 15.8672C21.3844 14.5758 21.3703 13.2937 21.3703 12ZM12 16.807C9.33984 16.807 7.19296 14.6601 7.19296 12C7.19296 9.33983 9.33984 7.19295 12 7.19295C14.6602 7.19295 16.807 9.33983 16.807 12C16.807 14.6601 14.6602 16.807 12 16.807ZM17.0039 8.11873C16.3828 8.11873 15.8812 7.61717 15.8812 6.99608C15.8812 6.37498 16.3828 5.87342 17.0039 5.87342C17.625 5.87342 18.1266 6.37498 18.1266 6.99608C18.1267 7.14356 18.0978 7.28963 18.0415 7.42592C17.9851 7.56221 17.9024 7.68604 17.7982 7.79033C17.6939 7.89461 17.57 7.9773 17.4337 8.03365C17.2975 8.09001 17.1514 8.11892 17.0039 8.11873Z" fill="#818589"/>
</svg>
